<svg t="1742542275592" class="icon" viewBox="0 0 1024 1024" version="1.1" xmlns="http://www.w3.org/2000/svg" p-id="4758" width="200" height="200"><path d="M524.947 443.047l67.834 67.075 17.355 17.16 321.816 318.215c18.73 18.521 18.73 48.552 0 67.074l-33.918 33.538c-18.731 18.521-49.101 18.521-67.833 0L524.947 644.27l-33.917-33.537-67.834-67.075c-18.731-18.521-18.731-48.552 0-67.074l33.918-33.538c18.731-18.522 49.1-18.522 67.833 0z m67.834 134.15l-33.916 33.537 305.252 301.837 33.917-33.537L592.78 577.197z m-346.9-167.193l42.598 125.122 125.282 40.88-126.039 41.627-41.841 124.374-41.674-124.208L78 576.005l125.629-41.222 42.252-124.78z m0.096 149.022l-4.479 13.304-11.83 3.865 12.513 4.16 3.748 11.207 3.849-11.402 11.74-3.918-10.846-3.507-4.695-13.71v0.001zM653.591 78l48.684 142.998 143.18 46.718-144.046 47.575-47.818 142.142-47.627-141.952-144.237-47.765 143.577-47.111L653.59 78zM317.83 220.287l24.342 71.5 71.59 23.358-72.023 23.788-23.91 71.07-23.813-70.976-72.118-23.882 71.788-23.555 24.144-71.303z m335.857 6.688l-10.514 31.176-29.777 9.755 30.542 10.131 9.7 28.95 9.828-29.169 29.745-9.865-28.742-9.348-10.782-31.63z" fill="#313233" p-id="4759"></path></svg>